# xmcd CD database file
#
# Track frame offsets:
#	150
#	17788
#	41367
#	53852
#	64095
#	76872
#	103352
#	119050
#	136273
#	156794
#	183424
#	196984
#	214657
#	229870
#
# Disc length: 3201 seconds
#
# Revision: 1
# Processed by: cddbd v1.5.1PL0 Copyright (c) Steve Scherf et al.
# Submitted via: CDex 1.51
#
DISCID=c20c7f0e
DTITLE=Various Artist - TRIBUTE -ゲゲゲの外道讃歌-
DYEAR=2003
DGENRE=Japanese Rock
TTITLE0=忌野清志郎 - 乞食のパーティー
TTITLE1=フラワーカンパニーズ - にっぽん讃歌
TTITLE2=YO-KING - 悪魔のベイビー
TTITLE3=ギターウルフ - ビュンビュン
TTITLE4=THE HOMESICKS - コウモリ男
TTITLE5=THEATRE BROOK - 何？
TTITLE6=ダイアモンドNo.5 - 腐った命
TTITLE7=Loop Junktion - 気をつけろ
TTITLE8=椎名純平& Evil Vibrations - 天国への道
TTITLE9=THE FUNKS - DRAGON GOD～龍神と舞う～
TTITLE10=03 feat. Marty Freadman - 逃げるな
TTITLE11=the 原爆オナニーズ - 完了
TTITLE12=外道集団本部 - 香り
TTITLE13=THE BONZO DOG BAND - SLUSH
EXTD=YEAR: 2003
EXTT0=
EXTT1=
EXTT2=
EXTT3=
EXTT4=
EXTT5=
EXTT6=
EXTT7=
EXTT8=
EXTT9=
EXTT10=
EXTT11=
EXTT12=
EXTT13=
PLAYORDER=
